# xmcd
#
# Track frame offsets:
#	150
#	21978
#	44238
#	64603
#	83345
#	110036
#	132289
#	159913
#	181860
#	202288
#	223931
#	252189
#
# Disc length: 3585 seconds
#
# Revision: 0
# Processed by: cddbd v1.5.2PL0 Copyright (c) Steve Scherf et al.
# Submitted via: EasyCDDAExtractor 12.0.1.1
#
DISCID=ae0dff0c
DTITLE=Barbara Prince - He Loves Me Too Good
DYEAR=2001
DGENRE=R&B
TTITLE0=Jump On An Airplane
TTITLE1=He Loves Me Too Good
TTITLE2=I Can't Make You Do Right
TTITLE3=Married Men...Single Women (Featuring Chuck Strong)
TTITLE4=I Found Somebody
TTITLE5=In Your Face Situation
TTITLE6=Still Lonely
TTITLE7=Let Me Borrow Your Man
TTITLE8=When Something Is Wrong With My Baby (Featuring Chuck Strong)
TTITLE9=The Love Song
TTITLE10=I'm Going Back To The Country
TTITLE11=Don't Mess Up a Good Thing (Featuring Chuck Strong)
EXTD=
EXTT0=
EXTT1=
EXTT2=
EXTT3=
EXTT4=
EXTT5=
EXTT6=
EXTT7=
EXTT8=
EXTT9=
EXTT10=
EXTT11=
PLAYORDER=
